<?xml version="1.0" encoding="UTF-8" standalone="no"?>
<!DOCTYPE svg PUBLIC "-//W3C//DTD SVG 1.1//EN"
 "http://www.w3.org/Graphics/SVG/1.1/DTD/svg11.dtd">
<!-- Generated by graphviz version 2.43.0 (0)
 -->
<!-- Title: %3 Pages: 1 -->
<svg width="1152pt" height="227pt"
 viewBox="0.00 0.00 1152.00 226.65" xmlns="http://www.w3.org/2000/svg" xmlns:xlink="http://www.w3.org/1999/xlink">
<g id="graph0" class="graph" transform="scale(0.57 0.57) rotate(0) translate(4 395)">
<title>%3</title>
<polygon fill="white" stroke="transparent" points="-4,4 -4,-395 2024,-395 2024,4 -4,4"/>
<g id="clust1" class="cluster">
<title>cluster_phases</title>
<path fill="#f5f5f5" stroke="black" d="M20,-8C20,-8 160,-8 160,-8 166,-8 172,-14 172,-20 172,-20 172,-371 172,-371 172,-377 166,-383 160,-383 160,-383 20,-383 20,-383 14,-383 8,-377 8,-371 8,-371 8,-20 8,-20 8,-14 14,-8 20,-8"/>
<text text-anchor="middle" x="90" y="-367.8" font-family="Times,serif" font-size="14.00">Execution Phases</text>
</g>
<g id="clust2" class="cluster">
<title>cluster_artifacts</title>
<path fill="#f0f8ff" stroke="black" d="M192,-83C192,-83 2000,-83 2000,-83 2006,-83 2012,-89 2012,-95 2012,-95 2012,-146 2012,-146 2012,-152 2006,-158 2000,-158 2000,-158 192,-158 192,-158 186,-158 180,-152 180,-146 180,-146 180,-95 180,-95 180,-89 186,-83 192,-83"/>
<text text-anchor="middle" x="1096" y="-142.8" font-family="Times,serif" font-size="14.00">Data Artifacts</text>
</g>
<!-- discovery -->
<g id="node1" class="node">
<title>discovery</title>
<path fill="#e6e6fa" stroke="black" d="M152,-352C152,-352 58,-352 58,-352 52,-352 46,-346 46,-340 46,-340 46,-326 46,-326 46,-320 52,-314 58,-314 58,-314 152,-314 152,-314 158,-314 164,-320 164,-326 164,-326 164,-340 164,-340 164,-346 158,-352 152,-352"/>
<text text-anchor="middle" x="105" y="-336.8" font-family="Arial" font-size="14.00">Discovery Phase</text>
<text text-anchor="middle" x="105" y="-321.8" font-family="Arial" font-size="14.00">(implemented)</text>
</g>
<!-- tui_mapping -->
<g id="node2" class="node">
<title>tui_mapping</title>
<path fill="#e6e6fa" stroke="black" d="M152,-278C152,-278 28,-278 28,-278 22,-278 16,-272 16,-266 16,-266 16,-252 16,-252 16,-246 22,-240 28,-240 28,-240 152,-240 152,-240 158,-240 164,-246 164,-252 164,-252 164,-266 164,-266 164,-272 158,-278 152,-278"/>
<text text-anchor="middle" x="90" y="-262.8" font-family="Arial" font-size="14.00">TUI Defaults Mapping</text>
<text text-anchor="middle" x="90" y="-247.8" font-family="Arial" font-size="14.00">(implemented)</text>
</g>
<!-- discovery&#45;&gt;tui_mapping -->
<g id="edge1" class="edge">
<title>discovery&#45;&gt;tui_mapping</title>
<path fill="none" stroke="red" stroke-width="2" d="M101.21,-313.83C99.61,-306.13 97.7,-296.97 95.92,-288.42"/>
<polygon fill="red" stroke="red" stroke-width="2" points="99.3,-287.49 93.84,-278.41 92.45,-288.92 99.3,-287.49"/>
</g>
<!-- artifact_discovery_data -->
<g id="node6" class="node">
<title>artifact_discovery_data</title>
<polygon fill="#87ceeb" stroke="black" points="1906,-127 1807.8,-109 1906,-91 2004.2,-109 1906,-127"/>
<text text-anchor="middle" x="1906" y="-105.3" font-family="Arial" font-size="14.00">discovery_data</text>
</g>
<!-- discovery&#45;&gt;artifact_discovery_data -->
<g id="edge5" class="edge">
<title>discovery&#45;&gt;artifact_discovery_data</title>
<path fill="none" stroke="green" stroke-dasharray="5,2" d="M164.28,-328.26C284.63,-320.48 566.18,-301.33 802,-278 1245.7,-234.1 1368.17,-276.52 1798,-158 1824.42,-150.72 1852.66,-137.97 1873.64,-127.44"/>
<polygon fill="green" stroke="green" points="1875.43,-130.46 1882.73,-122.79 1872.24,-124.23 1875.43,-130.46"/>
</g>
<!-- artifact_enhanced_defaults_file -->
<g id="node7" class="node">
<title>artifact_enhanced_defaults_file</title>
<polygon fill="#87ceeb" stroke="black" points="1647,-127 1504.56,-109 1647,-91 1789.44,-109 1647,-127"/>
<text text-anchor="middle" x="1647" y="-105.3" font-family="Arial" font-size="14.00">enhanced_defaults_file</text>
</g>
<!-- discovery&#45;&gt;artifact_enhanced_defaults_file -->
<g id="edge6" class="edge">
<title>discovery&#45;&gt;artifact_enhanced_defaults_file</title>
<path fill="none" stroke="green" stroke-dasharray="5,2" d="M164.29,-326.36C331.35,-310.23 820.11,-261.34 1224,-204 1344.95,-186.83 1376.25,-186.68 1495,-158 1531.49,-149.19 1572,-136.23 1602.01,-126"/>
<polygon fill="green" stroke="green" points="1603.45,-129.21 1611.76,-122.65 1601.17,-122.59 1603.45,-129.21"/>
</g>
<!-- collection -->
<g id="node3" class="node">
<title>collection</title>
<path fill="#e6e6fa" stroke="black" d="M152,-204C152,-204 34,-204 34,-204 28,-204 22,-198 22,-192 22,-192 22,-178 22,-178 22,-172 28,-166 34,-166 34,-166 152,-166 152,-166 158,-166 164,-172 164,-178 164,-178 164,-192 164,-192 164,-198 158,-204 152,-204"/>
<text text-anchor="middle" x="93" y="-188.8" font-family="Arial" font-size="14.00">Interactive Collection</text>
<text text-anchor="middle" x="93" y="-173.8" font-family="Arial" font-size="14.00">(implemented)</text>
</g>
<!-- tui_mapping&#45;&gt;collection -->
<g id="edge2" class="edge">
<title>tui_mapping&#45;&gt;collection</title>
<path fill="none" stroke="red" stroke-width="2" d="M90.76,-239.83C91.08,-232.13 91.46,-222.97 91.82,-214.42"/>
<polygon fill="red" stroke="red" stroke-width="2" points="95.31,-214.55 92.23,-204.41 88.32,-214.26 95.31,-214.55"/>
</g>
<!-- artifact_tui_defaults_file -->
<g id="node8" class="node">
<title>artifact_tui_defaults_file</title>
<polygon fill="#87ceeb" stroke="black" points="1385,-127 1283.79,-109 1385,-91 1486.21,-109 1385,-127"/>
<text text-anchor="middle" x="1385" y="-105.3" font-family="Arial" font-size="14.00">tui_defaults_file</text>
</g>
<!-- tui_mapping&#45;&gt;artifact_tui_defaults_file -->
<g id="edge8" class="edge">
<title>tui_mapping&#45;&gt;artifact_tui_defaults_file</title>
<path fill="none" stroke="green" stroke-dasharray="5,2" d="M164.44,-252.05C420.07,-231.56 1247.93,-164.85 1275,-158 1302.1,-151.14 1331,-138.29 1352.38,-127.61"/>
<polygon fill="green" stroke="green" points="1354.02,-130.7 1361.34,-123.04 1350.84,-124.47 1354.02,-130.7"/>
</g>
<!-- validation -->
<g id="node4" class="node">
<title>validation</title>
<path fill="#e6e6fa" stroke="black" d="M151.5,-128C151.5,-128 58.5,-128 58.5,-128 52.5,-128 46.5,-122 46.5,-116 46.5,-116 46.5,-102 46.5,-102 46.5,-96 52.5,-90 58.5,-90 58.5,-90 151.5,-90 151.5,-90 157.5,-90 163.5,-96 163.5,-102 163.5,-102 163.5,-116 163.5,-116 163.5,-122 157.5,-128 151.5,-128"/>
<text text-anchor="middle" x="105" y="-112.8" font-family="Arial" font-size="14.00">Validation Phase</text>
<text text-anchor="middle" x="105" y="-97.8" font-family="Arial" font-size="14.00">(implemented)</text>
</g>
<!-- collection&#45;&gt;validation -->
<g id="edge3" class="edge">
<title>collection&#45;&gt;validation</title>
<path fill="none" stroke="red" stroke-width="2" d="M95.97,-165.71C97.32,-157.37 98.95,-147.32 100.45,-138.06"/>
<polygon fill="red" stroke="red" stroke-width="2" points="103.92,-138.51 102.07,-128.08 97.01,-137.39 103.92,-138.51"/>
</g>
<!-- artifact_user_configuration -->
<g id="node9" class="node">
<title>artifact_user_configuration</title>
<polygon fill="#87ceeb" stroke="black" points="614,-127 496.2,-109 614,-91 731.8,-109 614,-127"/>
<text text-anchor="middle" x="614" y="-105.3" font-family="Arial" font-size="14.00">user_configuration</text>
</g>
<!-- collection&#45;&gt;artifact_user_configuration -->
<g id="edge10" class="edge">
<title>collection&#45;&gt;artifact_user_configuration</title>
<path fill="none" stroke="green" stroke-dasharray="5,2" d="M164.24,-181.82C260.65,-178.43 427.46,-170.92 487,-158 518.52,-151.16 552.63,-137.92 577.55,-127.07"/>
<polygon fill="green" stroke="green" points="579.24,-130.15 586.97,-122.9 576.41,-123.75 579.24,-130.15"/>
</g>
<!-- export -->
<g id="node5" class="node">
<title>export</title>
<path fill="#e6e6fa" stroke="black" d="M152,-54C152,-54 72,-54 72,-54 66,-54 60,-48 60,-42 60,-42 60,-28 60,-28 60,-22 66,-16 72,-16 72,-16 152,-16 152,-16 158,-16 164,-22 164,-28 164,-28 164,-42 164,-42 164,-48 158,-54 152,-54"/>
<text text-anchor="middle" x="112" y="-38.8" font-family="Arial" font-size="14.00">Export Phase</text>
<text text-anchor="middle" x="112" y="-23.8" font-family="Arial" font-size="14.00">(implemented)</text>
</g>
<!-- validation&#45;&gt;export -->
<g id="edge4" class="edge">
<title>validation&#45;&gt;export</title>
<path fill="none" stroke="red" stroke-width="2" d="M106.77,-89.83C107.52,-82.13 108.41,-72.97 109.24,-64.42"/>
<polygon fill="red" stroke="red" stroke-width="2" points="112.73,-64.71 110.21,-54.41 105.76,-64.03 112.73,-64.71"/>
</g>
<!-- artifact_validated_configuration -->
<g id="node10" class="node">
<title>artifact_validated_configuration</title>
<polygon fill="#87ceeb" stroke="black" points="892,-127 749.56,-109 892,-91 1034.44,-109 892,-127"/>
<text text-anchor="middle" x="892" y="-105.3" font-family="Arial" font-size="14.00">validated_configuration</text>
</g>
<!-- validation&#45;&gt;artifact_validated_configuration -->
<g id="edge12" class="edge">
<title>validation&#45;&gt;artifact_validated_configuration</title>
<path fill="none" stroke="green" stroke-dasharray="5,2" d="M124.7,-128.25C139.77,-141.32 161.86,-157.09 185,-162 199.86,-165.15 717,-164.42 732,-162 773.5,-155.31 818.8,-139.44 850.57,-126.8"/>
<polygon fill="green" stroke="green" points="852.02,-129.99 859.98,-122.99 849.4,-123.5 852.02,-129.99"/>
</g>
<!-- artifact_validation_report -->
<g id="node11" class="node">
<title>artifact_validation_report</title>
<polygon fill="#87ceeb" stroke="black" points="1159,-127 1052.26,-109 1159,-91 1265.74,-109 1159,-127"/>
<text text-anchor="middle" x="1159" y="-105.3" font-family="Arial" font-size="14.00">validation_report</text>
</g>
<!-- validation&#45;&gt;artifact_validation_report -->
<g id="edge14" class="edge">
<title>validation&#45;&gt;artifact_validation_report</title>
<path fill="none" stroke="green" stroke-dasharray="5,2" d="M124.7,-128.25C139.77,-141.32 161.86,-157.09 185,-162 208.07,-166.9 1010.89,-166.7 1034,-162 1066.36,-155.42 1100.74,-140.17 1125.24,-127.71"/>
<polygon fill="green" stroke="green" points="1126.86,-130.81 1134.12,-123.09 1123.63,-124.6 1126.86,-130.81"/>
</g>
<!-- artifact_final_configuration_files -->
<g id="node12" class="node">
<title>artifact_final_configuration_files</title>
<polygon fill="#87ceeb" stroke="black" points="333,-127 187.55,-109 333,-91 478.45,-109 333,-127"/>
<text text-anchor="middle" x="333" y="-105.3" font-family="Arial" font-size="14.00">final_configuration_files</text>
</g>
<!-- export&#45;&gt;artifact_final_configuration_files -->
<g id="edge15" class="edge">
<title>export&#45;&gt;artifact_final_configuration_files</title>
<path fill="none" stroke="green" stroke-dasharray="5,2" d="M164.37,-53.06C201.07,-65.02 249.72,-80.87 285.33,-92.47"/>
<polygon fill="green" stroke="green" points="284.42,-95.85 295.01,-95.62 286.58,-89.2 284.42,-95.85"/>
</g>
<!-- artifact_enhanced_defaults_file&#45;&gt;tui_mapping -->
<g id="edge7" class="edge">
<title>artifact_enhanced_defaults_file&#45;&gt;tui_mapping</title>
<path fill="none" stroke="blue" stroke-dasharray="5,2" d="M1613.44,-122.89C1583,-134.03 1536.64,-149.62 1495,-158 1440.09,-169.05 1048.85,-199.77 993,-204 692.08,-226.78 334.14,-245.79 174.33,-253.85"/>
<polygon fill="blue" stroke="blue" points="173.9,-250.37 164.09,-254.37 174.25,-257.36 173.9,-250.37"/>
</g>
<!-- artifact_tui_defaults_file&#45;&gt;collection -->
<g id="edge9" class="edge">
<title>artifact_tui_defaults_file&#45;&gt;collection</title>
<path fill="none" stroke="blue" stroke-dasharray="5,2" d="M1362.3,-123.09C1340.66,-134.79 1306.77,-151.11 1275,-158 1247.8,-163.9 801.83,-165.41 774,-166 557.28,-170.59 301.8,-177.84 174.16,-181.58"/>
<polygon fill="blue" stroke="blue" points="173.97,-178.08 164.07,-181.88 174.17,-185.08 173.97,-178.08"/>
</g>
<!-- artifact_user_configuration&#45;&gt;validation -->
<g id="edge11" class="edge">
<title>artifact_user_configuration&#45;&gt;validation</title>
<path fill="none" stroke="blue" stroke-dasharray="5,2" d="M587.02,-122.98C560.2,-136.03 517.47,-154.58 478,-162 462,-165.01 200.92,-165.38 185,-162 165.65,-157.89 147.05,-146.2 132.66,-134.84"/>
<polygon fill="blue" stroke="blue" points="134.63,-131.93 124.7,-128.25 130.17,-137.32 134.63,-131.93"/>
</g>
<!-- artifact_validated_configuration&#45;&gt;export -->
<g id="edge13" class="edge">
<title>artifact_validated_configuration&#45;&gt;export</title>
<path fill="none" stroke="blue" stroke-dasharray="5,2" d="M837.65,-97.79C808.99,-92.72 773.19,-86.86 741,-83 534.35,-58.22 287.83,-44.33 174.56,-38.82"/>
<polygon fill="blue" stroke="blue" points="174.5,-35.31 164.34,-38.32 174.16,-42.3 174.5,-35.31"/>
</g>
</g>
</svg>
