<?xml version="1.0" encoding="UTF-8" standalone="no"?>
<!DOCTYPE svg PUBLIC "-//W3C//DTD SVG 1.1//EN"
 "http://www.w3.org/Graphics/SVG/1.1/DTD/svg11.dtd">
<!-- Generated by graphviz version 2.43.0 (0)
 -->
<!-- Title: %3 Pages: 1 -->
<svg width="1008pt" height="57pt"
 viewBox="0.00 0.00 1008.00 57.06" xmlns="http://www.w3.org/2000/svg" xmlns:xlink="http://www.w3.org/1999/xlink">
<g id="graph0" class="graph" transform="scale(0.29 0.29) rotate(0) translate(4 191)">
<title>%3</title>
<polygon fill="white" stroke="transparent" points="-4,4 -4,-191 3441,-191 3441,4 -4,4"/>
<!-- artifact_discovery_data -->
<g id="node1" class="node">
<title>artifact_discovery_data</title>
<polygon fill="#f0f8ff" stroke="black" points="412,-187 194,-149 412,-111 630,-149 412,-187"/>
<text text-anchor="middle" x="412" y="-152.8" font-family="Arial" font-size="14.00">discovery_data</text>
<text text-anchor="middle" x="412" y="-137.8" font-family="Arial" font-size="14.00">Raw discovery data from enviro...</text>
</g>
<!-- artifact_enhanced_defaults_file -->
<g id="node2" class="node">
<title>artifact_enhanced_defaults_file</title>
<polygon fill="#f0f8ff" stroke="black" points="412,-93 206,-55 412,-17 618,-55 412,-93"/>
<text text-anchor="middle" x="412" y="-58.8" font-family="Arial" font-size="14.00">enhanced_defaults_file</text>
<text text-anchor="middle" x="412" y="-43.8" font-family="Arial" font-size="14.00">Rich defaults with discovery d...</text>
</g>
<!-- phase_tui_mapping -->
<g id="node9" class="node">
<title>phase_tui_mapping</title>
<path fill="#e6e6fa" stroke="black" d="M861,-73C861,-73 737,-73 737,-73 731,-73 725,-67 725,-61 725,-61 725,-49 725,-49 725,-43 731,-37 737,-37 737,-37 861,-37 861,-37 867,-37 873,-43 873,-49 873,-49 873,-61 873,-61 873,-67 867,-73 861,-73"/>
<text text-anchor="middle" x="799" y="-51.3" font-family="Arial" font-size="14.00">TUI Defaults Mapping</text>
</g>
<!-- artifact_enhanced_defaults_file&#45;&gt;phase_tui_mapping -->
<g id="edge3" class="edge">
<title>artifact_enhanced_defaults_file&#45;&gt;phase_tui_mapping</title>
<path fill="none" stroke="blue" d="M618.18,-55C652.21,-55 685.71,-55 714.4,-55"/>
<polygon fill="blue" stroke="blue" points="714.74,-58.5 724.74,-55 714.74,-51.5 714.74,-58.5"/>
<text text-anchor="middle" x="677.5" y="-58" font-family="Arial" font-size="10.00">consumed by</text>
</g>
<!-- artifact_tui_defaults_file -->
<g id="node3" class="node">
<title>artifact_tui_defaults_file</title>
<polygon fill="#f0f8ff" stroke="black" points="1146,-93 949,-55 1146,-17 1343,-55 1146,-93"/>
<text text-anchor="middle" x="1146" y="-58.8" font-family="Arial" font-size="14.00">tui_defaults_file</text>
<text text-anchor="middle" x="1146" y="-43.8" font-family="Arial" font-size="14.00">Simplified defaults for TUI di...</text>
</g>
<!-- phase_collection -->
<g id="node10" class="node">
<title>phase_collection</title>
<path fill="#e6e6fa" stroke="black" d="M1568,-73C1568,-73 1450,-73 1450,-73 1444,-73 1438,-67 1438,-61 1438,-61 1438,-49 1438,-49 1438,-43 1444,-37 1450,-37 1450,-37 1568,-37 1568,-37 1574,-37 1580,-43 1580,-49 1580,-49 1580,-61 1580,-61 1580,-67 1574,-73 1568,-73"/>
<text text-anchor="middle" x="1509" y="-51.3" font-family="Arial" font-size="14.00">Interactive Collection</text>
</g>
<!-- artifact_tui_defaults_file&#45;&gt;phase_collection -->
<g id="edge5" class="edge">
<title>artifact_tui_defaults_file&#45;&gt;phase_collection</title>
<path fill="none" stroke="blue" d="M1343.08,-55C1372.91,-55 1402.17,-55 1427.57,-55"/>
<polygon fill="blue" stroke="blue" points="1427.83,-58.5 1437.83,-55 1427.83,-51.5 1427.83,-58.5"/>
<text text-anchor="middle" x="1390.5" y="-58" font-family="Arial" font-size="10.00">consumed by</text>
</g>
<!-- artifact_user_configuration -->
<g id="node4" class="node">
<title>artifact_user_configuration</title>
<polygon fill="#f0f8ff" stroke="black" points="1864,-93 1656,-55 1864,-17 2072,-55 1864,-93"/>
<text text-anchor="middle" x="1864" y="-58.8" font-family="Arial" font-size="14.00">user_configuration</text>
<text text-anchor="middle" x="1864" y="-43.8" font-family="Arial" font-size="14.00">Configuration collected from u...</text>
</g>
<!-- phase_validation -->
<g id="node11" class="node">
<title>phase_validation</title>
<path fill="#e6e6fa" stroke="black" d="M2272,-73C2272,-73 2179,-73 2179,-73 2173,-73 2167,-67 2167,-61 2167,-61 2167,-49 2167,-49 2167,-43 2173,-37 2179,-37 2179,-37 2272,-37 2272,-37 2278,-37 2284,-43 2284,-49 2284,-49 2284,-61 2284,-61 2284,-67 2278,-73 2272,-73"/>
<text text-anchor="middle" x="2225.5" y="-51.3" font-family="Arial" font-size="14.00">Validation Phase</text>
</g>
<!-- artifact_user_configuration&#45;&gt;phase_validation -->
<g id="edge7" class="edge">
<title>artifact_user_configuration&#45;&gt;phase_validation</title>
<path fill="none" stroke="blue" d="M2072.04,-55C2102.5,-55 2131.88,-55 2156.59,-55"/>
<polygon fill="blue" stroke="blue" points="2156.88,-58.5 2166.88,-55 2156.88,-51.5 2156.88,-58.5"/>
<text text-anchor="middle" x="2119.5" y="-58" font-family="Arial" font-size="10.00">consumed by</text>
</g>
<!-- artifact_validated_configuration -->
<g id="node5" class="node">
<title>artifact_validated_configuration</title>
<polygon fill="#f0f8ff" stroke="black" points="2562,-170 2362,-132 2562,-94 2762,-132 2562,-170"/>
<text text-anchor="middle" x="2562" y="-135.8" font-family="Arial" font-size="14.00">validated_configuration</text>
<text text-anchor="middle" x="2562" y="-120.8" font-family="Arial" font-size="14.00">User configuration after valid...</text>
</g>
<!-- phase_export -->
<g id="node12" class="node">
<title>phase_export</title>
<path fill="#e6e6fa" stroke="black" d="M2945,-150C2945,-150 2871,-150 2871,-150 2865,-150 2859,-144 2859,-138 2859,-138 2859,-126 2859,-126 2859,-120 2865,-114 2871,-114 2871,-114 2945,-114 2945,-114 2951,-114 2957,-120 2957,-126 2957,-126 2957,-138 2957,-138 2957,-144 2951,-150 2945,-150"/>
<text text-anchor="middle" x="2908" y="-128.3" font-family="Arial" font-size="14.00">Export Phase</text>
</g>
<!-- artifact_validated_configuration&#45;&gt;phase_export -->
<g id="edge9" class="edge">
<title>artifact_validated_configuration&#45;&gt;phase_export</title>
<path fill="none" stroke="blue" d="M2762.11,-132C2793.7,-132 2824.04,-132 2848.72,-132"/>
<polygon fill="blue" stroke="blue" points="2848.94,-135.5 2858.94,-132 2848.94,-128.5 2848.94,-135.5"/>
<text text-anchor="middle" x="2811.5" y="-135" font-family="Arial" font-size="10.00">consumed by</text>
</g>
<!-- artifact_validation_report -->
<g id="node6" class="node">
<title>artifact_validation_report</title>
<polygon fill="#f0f8ff" stroke="black" points="2562,-76 2360,-38 2562,0 2764,-38 2562,-76"/>
<text text-anchor="middle" x="2562" y="-41.8" font-family="Arial" font-size="14.00">validation_report</text>
<text text-anchor="middle" x="2562" y="-26.8" font-family="Arial" font-size="14.00">Validation results and any iss...</text>
</g>
<!-- artifact_final_configuration_files -->
<g id="node7" class="node">
<title>artifact_final_configuration_files</title>
<polygon fill="#f0f8ff" stroke="black" points="3235,-170 3033,-132 3235,-94 3437,-132 3235,-170"/>
<text text-anchor="middle" x="3235" y="-135.8" font-family="Arial" font-size="14.00">final_configuration_files</text>
<text text-anchor="middle" x="3235" y="-120.8" font-family="Arial" font-size="14.00">Final exported configuration f...</text>
</g>
<!-- phase_discovery -->
<g id="node8" class="node">
<title>phase_discovery</title>
<path fill="#e6e6fa" stroke="black" d="M106,-120C106,-120 12,-120 12,-120 6,-120 0,-114 0,-108 0,-108 0,-96 0,-96 0,-90 6,-84 12,-84 12,-84 106,-84 106,-84 112,-84 118,-90 118,-96 118,-96 118,-108 118,-108 118,-114 112,-120 106,-120"/>
<text text-anchor="middle" x="59" y="-98.3" font-family="Arial" font-size="14.00">Discovery Phase</text>
</g>
<!-- phase_discovery&#45;&gt;artifact_discovery_data -->
<g id="edge1" class="edge">
<title>phase_discovery&#45;&gt;artifact_discovery_data</title>
<path fill="none" stroke="green" d="M118.35,-109.81C161.76,-115.63 222.75,-123.79 277.83,-131.17"/>
<polygon fill="green" stroke="green" points="277.66,-134.68 288.04,-132.53 278.59,-127.74 277.66,-134.68"/>
<text text-anchor="middle" x="156" y="-121" font-family="Arial" font-size="10.00">produces</text>
</g>
<!-- phase_discovery&#45;&gt;artifact_enhanced_defaults_file -->
<g id="edge2" class="edge">
<title>phase_discovery&#45;&gt;artifact_enhanced_defaults_file</title>
<path fill="none" stroke="green" d="M118.35,-94.19C162.86,-88.23 225.86,-79.79 282.01,-72.27"/>
<polygon fill="green" stroke="green" points="282.6,-75.73 292.04,-70.93 281.67,-68.79 282.6,-75.73"/>
<text text-anchor="middle" x="156" y="-94" font-family="Arial" font-size="10.00">produces</text>
</g>
<!-- phase_tui_mapping&#45;&gt;artifact_tui_defaults_file -->
<g id="edge4" class="edge">
<title>phase_tui_mapping&#45;&gt;artifact_tui_defaults_file</title>
<path fill="none" stroke="green" d="M873.17,-55C892.98,-55 915.45,-55 938.78,-55"/>
<polygon fill="green" stroke="green" points="938.82,-58.5 948.82,-55 938.82,-51.5 938.82,-58.5"/>
<text text-anchor="middle" x="911" y="-58" font-family="Arial" font-size="10.00">produces</text>
</g>
<!-- phase_collection&#45;&gt;artifact_user_configuration -->
<g id="edge6" class="edge">
<title>phase_collection&#45;&gt;artifact_user_configuration</title>
<path fill="none" stroke="green" d="M1580.16,-55C1599.78,-55 1622.19,-55 1645.62,-55"/>
<polygon fill="green" stroke="green" points="1645.71,-58.5 1655.71,-55 1645.71,-51.5 1645.71,-58.5"/>
<text text-anchor="middle" x="1618" y="-58" font-family="Arial" font-size="10.00">produces</text>
</g>
<!-- phase_validation&#45;&gt;artifact_validated_configuration -->
<g id="edge8" class="edge">
<title>phase_validation&#45;&gt;artifact_validated_configuration</title>
<path fill="none" stroke="green" d="M2284,-68.24C2332.56,-79.41 2403.22,-95.68 2461.02,-108.98"/>
<polygon fill="green" stroke="green" points="2460.38,-112.43 2470.91,-111.26 2461.95,-105.61 2460.38,-112.43"/>
<text text-anchor="middle" x="2322" y="-83" font-family="Arial" font-size="10.00">produces</text>
</g>
<!-- phase_validation&#45;&gt;artifact_validation_report -->
<g id="edge10" class="edge">
<title>phase_validation&#45;&gt;artifact_validation_report</title>
<path fill="none" stroke="green" d="M2284,-52.08C2314.27,-50.54 2353.12,-48.57 2392.09,-46.58"/>
<polygon fill="green" stroke="green" points="2392.72,-50.06 2402.53,-46.05 2392.36,-43.07 2392.72,-50.06"/>
<text text-anchor="middle" x="2322" y="-54" font-family="Arial" font-size="10.00">produces</text>
</g>
<!-- phase_export&#45;&gt;artifact_final_configuration_files -->
<g id="edge11" class="edge">
<title>phase_export&#45;&gt;artifact_final_configuration_files</title>
<path fill="none" stroke="green" d="M2957.3,-132C2975.88,-132 2998.47,-132 3022.66,-132"/>
<polygon fill="green" stroke="green" points="3022.74,-135.5 3032.74,-132 3022.74,-128.5 3022.74,-135.5"/>
<text text-anchor="middle" x="2995" y="-135" font-family="Arial" font-size="10.00">produces</text>
</g>
</g>
</svg>
